<svg xmlns="http://www.w3.org/2000/svg" width="1365.333" height="1365.333" version="1.0" viewBox="0 0 1024 1024"><path d="M422.5 158c-39.5 2.7-74.1 9.7-111.2 22.5-60.4 20.7-107.4 49.2-144.8 87.6-19.6 20.3-31.6 36.5-43.6 59.4-13.8 26.3-23 56.2-27.1 88.5-2.2 17.3-1.7 60 1 79.5 9.2 68.8 34 136.2 69.5 189.5 51.8 77.5 128.5 135.5 228.9 172.8 59.9 22.3 135.9 37.6 187.3 37.7 19.6 0 21.8-.2 32.8-2.8 52.4-12.4 111.8-46.1 171.2-96.8 15.7-13.4 54.2-51.9 68.5-68.4 21.2-24.5 33.5-42.4 45.9-67.2 21.6-43.1 34.2-90.6 39.1-147.3 2.9-33.2-5.7-80.4-19.7-108.5-20.1-40.3-54-84.8-88.8-116.8-32.9-30.2-65-52.1-107-72.7-63.8-31.3-127.9-48.3-212-56-15.2-1.4-74.2-2-90-1m55.9 41.2c.3 3.5.8 13.7 1.1 22.8s.8 21.7 1 28c4.6 110.2 5.7 139.2 5.2 139.6-.8.8-8.9-1.8-9.2-3-.5-1.5-2-31.8-5.4-110.1-1.7-36.9-3.2-70.7-3.6-75.3l-.5-8.2h10.8zm-46.7.8c1.1 25 3.4 74 3.8 80.5.8 13.5 3.5 79.3 3.8 90.5l.2 10.5-3.5-.3c-1.9-.2-3.6-.5-3.7-.6-.3-.2-3.5-46.3-7.8-113.1-.9-13.2-2.3-33.2-3.1-44.4-1.9-27.7-1.9-27.9.9-28.4 1.2-.3 3.8-.4 5.7-.3l3.5.1zm94.7 2.2c.5 6.7 2.9 106.6 4.2 175.8.3 15.7.7 29.3.9 30.3s0 1.7-.3 1.5c-8.3-4.1-8.1-3.9-8.6-9.2-.3-2.8-2.1-45.4-4.1-94.6s-3.9-94.3-4.2-100.3l-.6-10.7h12.1zm-139 4c.6 6.6 1.6 20.9 4.1 59.8 2 29.7 4 59.8 6.1 90.8.9 13.3 1.5 24.4 1.3 24.6s-2.2.6-4.4.8l-4 .3-.7-10c-.7-9.5-2.3-29-10.3-126.3-1.9-23.2-3.5-42.7-3.5-43.2 0-1 5.2-2.8 8.6-2.9 1.9-.1 2.2.6 2.8 6.1m184.8-4.3c.8.7 1.6 29.7 2.3 85.6.6 43.5 1.2 82.5 2.1 128.5l.5 29.5-4.8-4.8-4.8-4.7-.7-29.8c-.3-16.3-.9-41-1.2-54.7-.4-13.8-1.1-43-1.6-65s-1.3-50.5-1.6-63.3l-.7-23.4 4.9.7c2.7.4 5.2 1 5.6 1.4m47 10.2c1.7.9 1.8 4 1.8 46.7 0 40.1.6 141.7 1.3 227.9.2 15.6 0 28-.3 27.5-.4-.4-2.3-4.5-4.3-9.2l-3.6-8.5-.5-31c-.3-17.1-.8-49-1.1-71s-.7-50.1-1-62.5-.8-44.9-1.1-72.4l-.7-49.9 3.9.8c2.1.4 4.7 1.1 5.6 1.6m-272.5 25.4c3.3 40.5 6.1 74.2 8.8 109 1.4 17.6 2.8 34.3 3.1 37.1l.6 5.1-4.1 1-4 1.1-.5-4.2c-.3-2.2-1-10.4-1.6-18.1s-2.4-28.6-4.1-46.5c-3.5-39.1-8.9-103.6-8.9-106.7 0-1.4.9-2.5 2.8-3.1 5.7-2.2 5.5-2.8 7.9 25.3M663.4 226l4.6 1.9.1 17.8c0 9.8.2 23.4.4 30.3.1 6.9.6 81.6.9 166 .4 84.4.9 168.8 1.1 187.5s.5 72.4.7 119.4l.3 85.5-3.3 1.9c-1.8 1.1-3.4 1.8-3.6 1.6-1.4-1.5-2.6-56.8-3.1-135.4-.3-51.2-.7-116-1-144-.3-28.1-.7-103.9-1-168.5s-.8-128.4-1-141.8c-.2-13.3-.3-24.2 0-24.2.2 0 2.4.9 4.9 2m-360 6.7c.3 3.2 2.2 24.7 4.1 47.8 2 23.1 4.2 49 5 57.5 1.1 12.2 5.5 63.2 5.5 64.4 0 .6-8 3.9-8.4 3.5-.2-.2-1.5-14.1-3-30.9s-4.7-51.7-7.1-77.5c-2.4-25.9-4.7-51.6-5.1-57.2l-.7-10.3 3.4-1.5c5.2-2.2 5.6-1.9 6.3 4.2m408.4 13.9c2.2 1.4 2.2 1.5 2.2 28.7.1 14.9.3 42.3.5 60.7s.6 102.3 1 186.5c.3 84.1.8 182.6 1.1 218.7l.6 65.6-4.3 3.1c-2.3 1.7-4.4 3-4.5 2.8-.2-.1-.5-37.4-.9-82.7-.3-45.4-.7-114.5-1-153.5-.3-39.1-.8-129.9-1.1-201.9l-.7-130.8 2.4.7c1.3.4 3.4 1.3 4.7 2.1m-449.6 9c.4 3.8 1.6 17.9 2.8 31.4 1.1 13.5 3 33.7 4.1 45 2.8 28.8 7.9 87 7.9 90.2 0 1.9-.9 3.2-3.2 4.7-1.8 1.1-3.6 1.7-3.9 1.3-.6-.7-1.7-10.9-7.4-69.2-4.1-42.1-9.3-93.7-10-100.6-.6-5-.5-5.1 3.2-7.7 2.1-1.4 4.3-2.5 4.8-2.3.6.1 1.3 3.4 1.7 7.2m499.3 189.3c-.3 92.7-.7 204.8-1 249.1l-.5 80.5-2.7 2.2c-1.6 1.3-3.1 2.3-3.5 2.3-.5 0-.8-33.9-.9-75.3 0-41.3-.2-91.6-.4-111.7s-.7-101-1-179.8l-.7-143.3 5.7 3.7 5.6 3.8zM226.3 293.5c.9 9.9 3.3 33.5 5.2 52.5 2 19 4 39.2 4.5 45 .6 5.8 2.2 21.7 3.6 35.4l2.5 24.9-3.3 3.4c-1.7 1.8-3.5 3.3-3.9 3.3-.3 0-.9-2.1-1.1-4.8-.3-2.6-4.7-42.2-9.9-88.1l-9.3-83.4 4.5-3.8c2.4-2.1 4.7-3.5 5-3.1s1.4 8.8 2.2 18.7m579.6 17.9 2.4 2.5-.7 81.8c-.4 45-.9 90.1-1.1 100.3s-.7 55.4-1.1 100.5-.8 83.8-.9 86-.3 14.4-.3 27.2l-.2 23.2-3.1 3.6c-1.7 1.9-3.5 3.5-4.1 3.5s-.7-25.2-.4-69.3c.3-38 .7-127.3.8-198.2.2-71 .4-137.7.6-148.3l.3-19.3 2.7 2c1.5 1 3.8 3.1 5.1 4.5m-610.4 46.2c3 26.9 7.5 67.1 10 89.5l4.6 40.5-2.7 4.8c-1.4 2.6-2.7 4.6-2.9 4.4-.1-.2-1.5-9.5-2.9-20.8-1.5-11.3-4-30.6-5.6-43s-3.4-26.1-3.9-30.5c-2.7-22.3-10.2-79.3-10.6-81.1-.3-1.3 1-4 3.7-7.7 2.3-3.1 4.3-5.5 4.5-5.3s2.8 22.3 5.8 49.2m654.5 2.6 6.1 8.3-.5 18c-.3 9.9-.8 25.9-1.1 35.5s-.7 24.7-1 33.5-.7 25.2-1 36.5-.7 27.2-1 35.5c-.2 8.2-.7 24.9-1 37s-.7 27.6-1 34.5-.7 24.6-1 39.5c-.9 43.8-1 44-5.1 49.7-2 2.6-3.8 4.8-4.1 4.8s-.3-24.4.1-54.3c.3-29.8.8-81.2 1.1-114.2s.8-67.9 1-77.5c.3-9.6.5-34.9.5-56.3.1-21.3.5-38.7 1-38.7.4 0 3.6 3.7 7 8.2m-690 .2c0 1.3 1.6 14.2 3.5 28.7s4.8 37.2 6.5 50.4 4.4 34.1 6 46.5c8.3 64.4 13.6 105.3 19 148 1.7 12.9 3.3 24.8 3.5 26.5l.5 3-2.1-3.2c-1.6-2.5-2.9-9.2-5.9-30-6.4-44.3-12.7-87.8-18-124.3-2.8-19-7.5-51.8-10.5-73-3.1-21.2-6.2-42.6-7-47.5-2-12.2-1.9-16.8.6-22.6 2.3-5.3 3.9-6.3 3.9-2.5m288.5 45.7c26 3.5 45.5 9.6 66.7 20.6 11.6 6 20.1 12.5 33.6 25.7 34.2 33.2 53.9 71 65.1 124.8 9.1 43.8 22.6 199.2 22.6 260.2v13.9l-7 2.4c-18.6 6.3-43.8 9-69.3 7.4-33.3-2.1-59.2-6.9-98.5-18.3l-17.7-5.1.7-9.1c1.3-15 .9-112.2-.5-129.6-2.5-30.9-7.4-66.2-10.4-73.9-.4-1.3-.7-2.5-.5-2.7s5.7-2.2 12.3-4.4c17.5-6.1 33.4-14.1 35.8-18 4.3-7.4-3.4-18-13.2-18-1.7 0-6.9 1.8-11.6 4-4.8 2.1-16.2 6.4-25.5 9.4-44.5 14.5-75.9 18.8-112.1 15.5-18-1.6-27.7-3.6-39-8-38.7-15-54.4-27.9-59-48.4-1.8-7.9-1.3-24 .9-32.6 5.3-20.5 19.6-41 41-58.7 6.4-5.4 8.1-6 6.2-2.4-.6 1.2-1.1 3.8-1.1 5.9 0 13.5 19.3 18.3 25.5 6.4 6.1-11.8-6.2-24.5-18-18.6l-3 1.5 3-2.5c12.3-10.3 45.3-26.8 72.8-36.5 32.6-11.4 68.2-15.3 100.2-10.9m446 36.4c12.3 42.6 11 92.3-4 147.1-1.9 6.9-3.5 12.8-3.5 13s-.4.4-1 .4c-.5 0-.7-2.3-.5-5.3.2-2.8.6-16.9 1-31.2.3-14.3.7-32.8 1-41 .3-8.3.7-22.9 1-32.5.2-9.6.8-27.6 1.1-39.9.4-12.4 1-21.7 1.5-20.9.4.8 2 5.4 3.4 10.3m-746.6 75.9c3.4 23.1 5.9 42.1 5.7 42.3-.4.4-6-20.5-8.1-30.6-4.7-22.3-7.5-47.4-7.4-64.6l.1-13 1.8 12c1 6.6 4.5 30.9 7.9 53.9m73 82.9c1.9 2.1 2.5 5.2 5.1 29.3 1.7 14.8 4.1 36.8 5.5 48.9s2.7 24.2 3 27l.5 5-2.5-3c-1.9-2.3-2.5-4.1-2.5-7.9 0-2.7-1.3-15.1-3-27.5-1.6-12.4-4.3-33.2-6-46.1-1.6-12.9-3.2-24.5-3.4-25.8-.4-2.8.5-2.8 3.3.1m36.6 22.1c1.7 1.2 2.2 4.5 4.1 24.7 1.3 12.9 3.9 39.3 5.9 58.8s3.5 36.3 3.3 37.4c-.3 1.9-.3 1.9-2.5.1-2.1-1.8-2.6-5.2-8.8-60.4-3.6-32.2-6.5-59.3-6.5-60.3 0-2.1 1.9-2.2 4.5-.3m38.1 9.6c.7 0 1.7 7.5 2.8 20.2 1 11.2 3.5 39 5.6 61.8 5.1 54.4 5.5 60 4.2 60-.6 0-1.9-1-2.9-2.3-1.5-1.9-2.3-7.7-4.6-31.3-1.6-15.9-4.6-46-6.8-66.9-2.1-20.9-3.9-39.1-3.9-40.4 0-1.9.4-2.2 2.3-1.7 1.2.3 2.7.6 3.3.6m84.7 19.2c4.1 49.3 8.7 106.5 9.7 119.8.6 8 1.8 21.9 2.6 30.9s1.3 16.6 1.1 16.8c-.3.2-1.6-.1-3-.8-3-1.4-2.5 2.2-7.2-52.4-2-22.6-5.4-61.3-7.5-86.1-2.2-24.8-4-45.6-4-46.2 0-1 2-1.9 5.1-2.1 1.3-.1 1.8 2.9 3.2 20.1m-41.9-13c.5 4.1 3.5 37.5 10.9 124 1.8 20.8 3 37.8 2.7 37.8s-1.9-.9-3.6-1.9c-3.7-2.2-3.2.6-6.9-41.1-1.4-15.7-4.3-48.1-6.5-72s-4.1-45.2-4.3-47.3c-.2-3.7-.2-3.7 3.4-3.7s3.7.1 4.3 4.2"/><path d="M344.2 464c-4.5 2.8-7.2 7.6-7.2 13 0 15.5 20 20.7 27 7.1 2.5-5 2.5-9.1 0-14-3.8-7.5-12.9-10.3-19.8-6.1"/></svg>