<svg xmlns="http://www.w3.org/2000/svg" width="1024" height="1024" viewBox="0 0 270.933 270.933"><path d="M142.522 82.127c0-21.167 5.362-36.125 16.087-46.567l-10.16-9.595c-.565.564-2.54 2.54-3.105 3.668-.846.847-2.257 2.258-2.822 3.387-8.466 10.725-12.7 24.836-12.7 44.027V90.31l-6.49-5.644c-7.62-6.774-16.652-11.571-29.916-12.418h-8.75c-33.584 2.258-55.88 31.044-55.88 63.782v5.927c0 24.835 9.596 54.75 26.53 72.53 17.78 18.627 43.744 30.48 78.74 30.48h8.184c2.54 0 4.798-.281 7.338-.564 42.615-3.95 72.813-25.964 84.949-60.96 6.208-15.804 7.62-27.94 7.62-44.59v-5.927c-2.823-26.811-13.83-46.567-34.431-55.598-6.21-2.822-14.394-5.362-23.143-5.362h-2.54c-14.11 0-25.964 5.08-33.02 12.7l-6.49 7.337zm-8.184 148.448c-50.518 0-79.869-25.682-88.336-68.297-1.41-6.491-2.257-13.265-2.257-20.885v-6.773c1.975-26.811 16.086-45.438 42.897-48.26h5.645c22.577 0 29.35 17.78 39.229 30.762 1.41 1.976 2.822 4.516 3.95 6.774l5.363-6.774c10.724-13.829 16.651-30.762 41.204-30.762h3.951c24.554 1.693 44.027 22.86 44.027 47.413v7.62c0 25.683-10.724 54.187-30.762 70.556-14.111 11.006-34.149 18.626-57.856 18.626zm1.693-42.05 29.351-36.407-11.006-8.749-18.345 22.86-18.626-23.142-11.007 9.031z" aria-label="kili+lili" style="stroke-width:.264583"/></svg>