<svg xmlns="http://www.w3.org/2000/svg" width="512" height="512"><g style="display:inline"><path d="M340.068.488c-8.218.188-16.414 2.503-24.002 6.784l-.32.18-.296.22c-12.184 9.053-21.518 20.62-24.55 36.452l-.062.314-.025.319c-.526 6.562-.173 12.714.665 18.72-7.276-10.143-16.309-20.512-30.374-28.389-18.155-10.166-59.341-23.492-103.74-23.307-34.532.144-71.075 8.765-98.243 35.04l-.069.067-.068.07c-4.514 4.665-8.62 8.699-13.266 14.57l-.18.229-.157.245c-21.204 33.079-18.605 83.364-13.055 118.55l.005.018.002.02c7.596 46.155 29.43 93.332 52.687 137.186l.124.234.144.22c17.671 27.13 39.008 59.864 71.373 77.055l.234.123.243.104c16.19 6.81 36.032 10.447 54.045 3.716l.133-.048.128-.058c22.995-9.875 53.778-22.972 77.08-41.95 11.651-9.49 21.506-20.524 27.274-33.615 1.262-2.866 2.224-5.871 3.052-8.927 1.434 12.497 2.038 24.999 1.285 37.355-1.643 12.407-10.84 24.02-21.232 33.026l.163-.135c-21.208 17.085-45.032 38.43-67.435 59.62l-.098.091-.092.099c-7.154 7.415-20.773 17.123-21.864 32.394l-.09 1.228.415 1.162c4.105 11.494 12.386 22.299 22.421 29.244l3.338 2.309 3.338-2.31c28.145-19.482 49.615-45.889 70.844-68.493 20.763-22.107 41.085-40.24 66.353-46.315.578.484 2.371 1.504 4.019 3.247 2.427 2.566 4.626 5.55 7.348 7.886l-.298-.273c14.337 14.138 13.363 12.578 23.37 31.139-10.535 13.325-29.896 29.196-46.82 44.028l-1.954 1.712-.046 2.598c-.096 5.532.073 12.333 4.836 18.24l.351.435.426.36c4.97 4.206 10.924 8.57 19.16 8.832l.102.002h.1c14.823-.041 32.92-10.716 49.763-24.49 16.844-13.774 31.865-30.63 35.893-47.188 1.841-7.568-1.014-15.08-5.194-22.764-4.18-7.685-10.111-15.723-16.512-23.784-12.8-16.124-27.625-32.679-33.198-42.842-14.057-25.634-16.111-49.4-17.706-75.073-.447-7.19-.929-14.567-1.567-22.075 2.442 7.3 5.18 14.436 8.825 20.508 5.248 8.74 12.795 15.986 23.108 17.018s21.622-3.99 34.78-15.472l.275-.24.245-.273c10.377-11.625 17.484-18.9 21.305-32.823s4.587-33.512 4.674-71.936v-.01c.01-12.448-.216-33.715-8.958-48.483l-.241-.405-.3-.362c-9.334-11.201-24.072-13.321-36.101-15.195l-.502-.08-.509.009c-.232.005-.495.025-.73.025 5.084-6.245 8.149-14.86 5.938-24.378l-.518-2.229-1.89-1.288c-5.003-3.415-10.558-3.866-15.708-4.421-2.698-.291-5.29-.588-7.677-.981 2.034-5.142 3.953-10.808 5.196-17.035 1.792-8.982 2.45-18.436-.633-26.737-1.78-4.794-5.853-8.326-10.239-9.419-4.385-1.092-8.752-.286-12.775 1.354-7.23 2.949-13.748 8.83-17.126 16.56-3.449-10.361-9.373-19.675-18.004-27.044l-.162-.14-.174-.126C361.19 3.554 350.633.246 340.068.488Z" style="color:#000;fill:#fff;fill-opacity:1;stroke:none;stroke-width:1.17305;-inkscape-stroke:none"/></g><g style="display:inline"><path d="M366.897 15.02c11.303 9.651 17.72 22.553 19.153 37.36.371 15.545-4.701 28.773-15.194 40.135-9.935 9.457-21.472 12.223-34.802 11.919-10.558-.706-21.181-6.524-28.218-14.366-9.765-14.236-12.544-27.777-11.176-44.841C299.384 31 307.485 20.898 318.948 12.38c15.557-8.778 33.373-8.066 47.949 2.64M444.978 112.017c11.95 1.862 24.99 4.148 32.498 13.157 7.374 12.455 8.149 33.297 8.139 45.489-.173 76.675-3.567 77.43-24.49 100.867-50.118 43.735-57.81-24.814-68.245-57.934a1427 1427 0 0 0-7.068-21.738l-7.038 2.346c25.086 59.677 4.262 106.112 33.625 159.659 12.627 23.027 59.253 65.027 54.35 85.183-6.784 27.888-56.979 67.135-79.974 67.199-6.353-.202-10.784-3.408-15.556-7.446-3.497-4.336-3.631-9.083-3.538-14.457 17.873-15.664 39.215-32.62 50.02-47.715-12.613-23.287-11.02-20.954-26.317-36.038-3.457-2.969-10.042-12.644-14.754-12.89-56.026 12.143-86.485 78.477-140.969 116.192-8.875-6.143-16.603-16.225-20.235-26.394.824-11.54 12.581-20.807 20.235-28.74 22.323-21.114 46.064-42.379 67.084-59.312 10.993-9.527 21.368-22.139 23.241-36.878 1.64-26.344-2.588-52.968-8.211-78.595-5.64-20.977-8.314-43.148-8.475-63.792-.087-20.736 2.196-35.163 16.76-50.8 13.043-12.507 28.76-19.3 46.849-20.31 14.051-.578 30.225-1.441 39.842 14.371s16.733 64.384 22.183 90.618c25.317-7.891 24.865-56.22 24.998-73.542-.16-9.976.341-24.624-4.543-31.74-5.332-4.077-11.433-5.185-15.616-10.264-1.375-4.473-1.366-7.37-1.444-11.661.51-4.558 2.338-4.756 6.65-4.835" style="stroke-width:1.17305"/><path d="M157.39 17.646c-33.576.14-68.454 8.5-94.19 33.39-4.57 4.724-8.467 8.554-12.881 14.132-19.558 30.51-17.647 79.926-12.198 114.47 7.406 44.999 28.932 91.738 52.081 135.391 17.654 27.102 38.66 58.85 69.21 75.076 15.271 6.423 33.731 9.603 49.718 3.629 45.99-19.751 121.379-52.131 103.41-113.24-5.196-21.047-11.007-47.001-10.015-72.213.578-13.103.471-27.039 7.039-38.71 12.591-17.64 28.399-30.305 49.708-35.192 17.428-2.896 33.819-2.608 49.016 7.047 10.503 6.87 30.564 15.732 36.25-3.895-3.512-8.441-13.184-16.208-22.361-23.094 12.19-4.72 25.902-15.318 22.187-31.31-6.562-4.48-18.838-2.6-28.052-6.228 5.536-11.281 11.895-32.67 7.038-45.75s-25.864-2.988-30.248 10.81c-4.383 13.799-2.542 30.35-12.422 46.524-7.685 11.462-18.81 17.782-32.204 20.74-12.82 1.799-25.039-1.004-35.723-8.359-18.958-16.053-24.889-44.067-54.515-60.657-16.665-9.333-57.68-22.74-100.848-22.561m59.502 22.888c2.652 20.561 5.334 39.607 6.887 61.533l.152 2.985c14.09-5.584 27.616-11.067 43.403-16.422 3.42 7.286 6.072 14.524 8.211 22.288-15.35 7.041-31.701 13.455-48.095 18.768l7.038 52.788c13.99-5.802 27.433-11.557 43.403-16.423 2.898 7.21 5.677 13.873 7.038 22.288-15.205 6.481-29.269 12.977-45.957 18.196l-2.138.573c2.658 22.35 5.37 43.055 7.039 66.864q-2.775 1.228-5.552 2.445l-2.293 1.001c-4.77 2.117-9.289 3.834-14.443 4.765-2.657-19.945-5.306-39.155-6.888-61.257l-.15-3.26c-13.42 5.204-25.982 10.2-41.058 15.25 4.036 19.233 3.69 43.175 8.212 64.517-2.515 2.952-8.168 5.828-13.878 7.856q-2.58 1.058-5.16 2.117c-2.177.863-2.176.864-4.423-.588-3.324-19.185-2.089-43.12-8.212-63.345-12.751 5.208-27.285 11.362-41.057 16.422-5.538-2.096-6.207-14.768-9.384-21.115 13.987-7.45 33.256-13.032 45.827-19.288l2.268-.653c-1.758-15.917-1.975-36.558-7.038-52.788-13.656 5.621-27.002 10.573-43.403 16.423-2.918-6.728-5.485-14.463-7.944-21.644 12.54-8.974 33.292-12.267 49-20.586-.443-19.586-8.018-42.928-6.607-64.804.569-2.229.57-2.23 2.706-3.348 6.087-2.344 11.136-4.318 17.978-6.924 4.97 14.677 6.46 46.095 9.133 63.355l.252 2.336c11.51-4.901 25.715-10.99 39.884-15.25-2.732-22.309-5.877-43.022-7.039-66.863 7.29-3.742 14.532-6.214 22.288-8.212m-11.73 99.71c-14.813 4.397-26.737 8.723-41.057 15.25 2.167 18.586 4.259 30.474 7.506 54.595 10.004-4.227 28.284-12.37 39.416-17.058.045-16.912-4.267-35.096-5.865-52.787" style="fill:#925500;fill-opacity:1;stroke:none;stroke-width:1.17305"/></g></svg>